<?xml version="1.0" encoding="UTF-8" standalone="no"?>
<!-- Generator: Adobe Illustrator 16.0.0, SVG Export Plug-In . SVG Version: 6.00 Build 0)  -->
<!DOCTYPE svg  PUBLIC '-//W3C//DTD SVG 1.1//EN'  'http://www.w3.org/Graphics/SVG/1.1/DTD/svg11.dtd'>
<svg id="icons" xmlns="http://www.w3.org/2000/svg" enable-background="new 0 0 180 180" xml:space="preserve" height="180px" viewBox="0 0 180 180" width="180px" version="1.1" y="0px" x="0px" xmlns:xlink="http://www.w3.org/1999/xlink">
<switch>
	<g>
			<path stroke-linejoin="round" d="m150.68 63.538c0 10.662-8.636 19.299-19.295 19.299-10.66 0-19.311-8.637-19.311-19.299 0-10.658 8.65-19.299 19.311-19.299 10.66 0 19.3 8.641 19.3 19.299z" stroke="#565655" stroke-linecap="round" stroke-miterlimit="10" stroke-width="1.8408" fill="none"/>
			<path stroke-linejoin="round" d="m147.17 86.036c2.146 12.475-9.914 33.312-15.79 33.312-5.887 0-18.309-18.273-15.801-33.312-11.156 2.908-19.409 13.027-19.409 25.102v22.548h70.404v-22.548c0-12.077-8.25-22.196-19.41-25.104z" stroke="#565655" stroke-linecap="round" stroke-miterlimit="10" stroke-width="1.8408" fill="none"/>
			<path stroke-linejoin="round" d="m72.985 63.538c0 10.662-8.642 19.299-19.299 19.299-10.66 0-19.306-8.637-19.306-19.299 0-10.658 8.646-19.299 19.306-19.299 10.658 0 19.299 8.641 19.299 19.299z" stroke="#565655" stroke-linecap="round" stroke-miterlimit="10" stroke-width="1.8408" fill="none"/>
				<path stroke-linejoin="round" d="m69.484 86.036c-4.481 3.149-9.918 5.01-15.798 5.01-5.887 0-11.323-1.86-15.797-5.01-11.156 2.908-19.407 13.029-19.407 25.102v22.548h70.405v-22.548c0.001-12.075-8.25-22.196-19.403-25.104z" stroke="#565655" stroke-linecap="round" stroke-miterlimit="10" stroke-width="1.8408" fill="none"/>
		<path d="m76.86 89.069l-7.967-3.033v19.953c-5.006 2.988-9.42 4.861-15.102 4.861-5.68 0-11.262-2.498-15.104-4.859v-19.954l-7.962 3.033-1.933 24.059c0 13.803 11.194 24.998 24.998 24.998 13.808 0 25-11.195 25-24.998" fill="#fff"/>
			<path stroke-linejoin="round" d="m76.86 89.069l-7.967-3.033v19.953c-5.006 2.988-9.42 4.861-15.102 4.861-5.68 0-11.262-2.498-15.104-4.859v-19.954l-7.962 3.033-1.933 24.059c0 13.803 11.194 24.998 24.998 24.998 13.808 0 25-11.195 25-24.998l-1.93-24.061z" stroke="#565655" stroke-linecap="round" stroke-miterlimit="10" stroke-width="1.8408" fill="none"/>
			<polygon stroke-linejoin="round" points="134.72 90.247 141.3 94.979 141.3 85.521" stroke="#565655" stroke-linecap="round" stroke-miterlimit="10" stroke-width="1.8408" fill="none"/>
			<polygon stroke-linejoin="round" points="121.29 94.979 127.87 90.247 121.29 85.521" stroke="#565655" stroke-linecap="round" stroke-miterlimit="10" stroke-width="1.8408" fill="none"/>
		<path d="m134.93 90.733c0 2.008-1.629 3.637-3.634 3.637-2.006 0-3.633-1.629-3.633-3.637 0-2.012 1.627-3.635 3.633-3.635 2 0.001 3.63 1.624 3.63 3.635" fill="#fff"/>
			<path stroke-linejoin="round" d="m134.93 90.733c0 2.008-1.629 3.637-3.634 3.637-2.006 0-3.633-1.629-3.633-3.637 0-2.012 1.627-3.635 3.633-3.635 2 0.001 3.63 1.624 3.63 3.635z" stroke="#565655" stroke-linecap="round" stroke-miterlimit="10" stroke-width="1.8408" fill="none"/>
		<rect y="58.218" x="32.418" height="5.963" width="42.537" fill="#fff"/>
			<rect stroke-linejoin="round" height="5.963" width="42.537" stroke="#565655" stroke-linecap="round" stroke-miterlimit="10" y="58.218" x="32.418" stroke-width="1.8408" fill="none"/>
		<path d="m64.68 53.202c-2.106-1.828-5.113-0.885-6.14 0-0.597-2.816-2.092-5.41-4.752-5.475v-0.01c-0.022 0-0.032 0.002-0.049 0.002-0.02 0-0.031-0.002-0.053-0.002v0.01c-2.662 0.064-4.15 2.658-4.754 5.475-1.017-0.885-4.029-1.828-6.133 0-2.105 1.822-0.905 4.518-0.905 4.518h23.682s1.21-2.696-0.896-4.518" fill="#fff"/>
			<path stroke-linejoin="round" d="m64.68 53.202c-2.106-1.828-5.113-0.885-6.14 0-0.597-2.816-2.092-5.41-4.752-5.475v-0.01c-0.022 0-0.032 0.002-0.049 0.002-0.02 0-0.031-0.002-0.053-0.002v0.01c-2.662 0.064-4.15 2.658-4.754 5.475-1.017-0.885-4.029-1.828-6.133 0-2.105 1.822-0.905 4.518-0.905 4.518h23.682s1.21-2.696-0.896-4.518z" stroke="#565655" stroke-linecap="round" stroke-miterlimit="10" stroke-width="1.8408" fill="none"/>
			<path stroke-linejoin="round" d="m119.97 64.114c0.309 6.053 5.274 10.883 11.401 10.883 6.134 0 11.095-4.83 11.399-10.883h-22.8z" stroke="#565655" stroke-linecap="round" stroke-miterlimit="10" stroke-width="1.8408" fill="none"/>
	</g>
</switch>
</svg>
