<?xml version="1.0" encoding="UTF-8" standalone="no"?>
<!-- Generator: Adobe Illustrator 16.0.0, SVG Export Plug-In . SVG Version: 6.00 Build 0)  -->
<!DOCTYPE svg  PUBLIC '-//W3C//DTD SVG 1.1//EN'  'http://www.w3.org/Graphics/SVG/1.1/DTD/svg11.dtd'>
<svg id="icons" xmlns="http://www.w3.org/2000/svg" enable-background="new 0 0 180 180" xml:space="preserve" height="180px" viewBox="0 0 180 180" width="180px" version="1.1" y="0px" x="0px" xmlns:xlink="http://www.w3.org/1999/xlink">
<switch>
	<g stroke-linejoin="round" stroke="#565655" stroke-linecap="round" stroke-miterlimit="10" stroke-width="1.8408" fill="none">
			<path d="m133.76 93.902c0 23.518-19.071 42.586-42.593 42.586s-42.592-19.068-42.592-42.586c0-23.523 19.069-42.592 42.592-42.592 23.523-0.001 42.593 19.067 42.593 42.59z"/>
			<path d="m119.89 93.902c0 15.861-12.859 28.719-28.722 28.719s-28.723-12.857-28.723-28.719c0-15.869 12.859-28.723 28.723-28.723 15.862 0.002 28.722 12.855 28.722 28.724z"/>
			<path d="m158.07 69.775h-4.409v-25.423h-4.305v25.424h-4.405v-25.424h-4.076l-1.829 26.488c-0.087 2.633 2.744 6.279 4.53 8.143l3.234 3.375v51.949c0 3.955 2.104 7.152 4.701 7.152s4.703-3.197 4.703-7.152v-51.953s1.445-1.512 3.231-3.375c1.783-1.863 4.618-5.51 4.532-8.143l-1.828-26.488h-4.08v25.424z"/>
			<path d="m33.122 49.619c2.711 5.055 7.822 18.957 6.21 32.974-1.027 8.964-5.088 13.294-5.088 13.294l2.026 38.438c0 3.955-2.107 7.154-4.703 7.154s-4.701-3.199-4.701-7.154v-38.433l-0.003-51.518s3.025-0.779 6.259 5.25z"/>
	</g>
</switch>
</svg>
