<?xml version="1.0" encoding="UTF-8" standalone="no"?>
<!-- Generator: Adobe Illustrator 16.0.0, SVG Export Plug-In . SVG Version: 6.00 Build 0)  -->
<!DOCTYPE svg  PUBLIC '-//W3C//DTD SVG 1.1//EN'  'http://www.w3.org/Graphics/SVG/1.1/DTD/svg11.dtd'>
<svg id="icons" xmlns="http://www.w3.org/2000/svg" enable-background="new 0 0 180 180" xml:space="preserve" height="180px" viewBox="0 0 180 180" width="180px" version="1.1" y="0px" x="0px" xmlns:xlink="http://www.w3.org/1999/xlink">
<switch>
	<g>
		<rect y="27.221" x="81.595" height="75.852" width="51.953" fill="#fff"/>
			<rect stroke-linejoin="round" height="75.852" width="51.953" stroke="#565655" stroke-linecap="round" stroke-miterlimit="10" y="27.221" x="81.595" stroke-width="1.8408" fill="none"/>
		<path d="m117.55 42.715c0 5.516-4.471 9.984-9.987 9.984-5.515 0-9.985-4.469-9.985-9.984 0-5.514 4.471-9.986 9.985-9.986 5.52 0 9.99 4.472 9.99 9.986" fill="#fff"/>
			<circle stroke-linejoin="round" r="9.986" cx="107.57" cy="42.715" stroke="#565655" stroke-linecap="round" stroke-miterlimit="10" stroke-width="1.8408" fill="none"/>
		<path d="m112.02 42.715c0 2.461-1.993 4.451-4.45 4.451-2.453 0-4.448-1.99-4.448-4.451 0-2.457 1.995-4.449 4.448-4.449 2.45 0 4.45 1.992 4.45 4.449" fill="#fff"/>
			<path stroke-linejoin="round" d="m112.02 42.715c0 2.461-1.993 4.451-4.45 4.451-2.453 0-4.448-1.99-4.448-4.451 0-2.457 1.995-4.449 4.448-4.449 2.45 0 4.45 1.992 4.45 4.449z" stroke="#565655" stroke-linecap="round" stroke-miterlimit="10" stroke-width="1.8408" fill="none"/>
		<path d="m126.84 77.578c0 10.648-8.627 19.281-19.276 19.281-10.646 0-19.273-8.633-19.273-19.281 0-10.646 8.628-19.275 19.273-19.275 10.66 0 19.28 8.629 19.28 19.275" fill="#fff"/>
			<path stroke-linejoin="round" d="m126.84 77.578c0 10.648-8.627 19.281-19.276 19.281-10.646 0-19.273-8.633-19.273-19.281 0-10.646 8.628-19.275 19.273-19.275 10.66 0 19.28 8.629 19.28 19.275z" stroke="#565655" stroke-linecap="round" stroke-miterlimit="10" stroke-width="1.8408" fill="none"/>
		<path d="m115.17 77.578c0 4.201-3.398 7.606-7.601 7.606-4.194 0-7.596-3.405-7.596-7.606 0-4.197 3.401-7.598 7.596-7.598 4.2 0 7.6 3.401 7.6 7.598" fill="#fff"/>
			<path stroke-linejoin="round" d="m115.17 77.578c0 4.201-3.398 7.606-7.601 7.606-4.194 0-7.596-3.405-7.596-7.606 0-4.197 3.401-7.598 7.596-7.598 4.2 0 7.6 3.401 7.6 7.598z" stroke="#565655" stroke-linecap="round" stroke-miterlimit="10" stroke-width="1.8408" fill="none"/>
		<line y1="137.33" x2="107.57" x1="107.57" y2="103.68" fill="#fff"/>
			<line stroke-linejoin="round" x1="107.57" y2="103.68" x2="107.57" stroke="#565655" stroke-linecap="round" stroke-miterlimit="10" y1="137.33" stroke-width="1.8408" fill="none"/>
		<line y1="137.33" x2="107.57" x1="88.292" y2="119.8" fill="#fff"/>
			<line stroke-linejoin="round" x1="88.292" y2="119.8" x2="107.57" stroke="#565655" stroke-linecap="round" stroke-miterlimit="10" y1="137.33" stroke-width="1.8408" fill="none"/>
		<line y1="137.33" x2="107.56" x1="126.84" y2="119.8" fill="#fff"/>
			<line stroke-linejoin="round" x1="126.84" y2="119.8" x2="107.56" stroke="#565655" stroke-linecap="round" stroke-miterlimit="10" y1="137.33" stroke-width="1.8408" fill="none"/>
		<line y1="35.449" x2="73.357" x1="54.102" y2="51.574" fill="#fff"/>
			<line stroke-linejoin="round" x1="54.102" y2="51.574" x2="73.357" stroke="#565655" stroke-linecap="round" stroke-miterlimit="10" y1="35.449" stroke-width="1.8408" fill="none"/>
		<line y1="94.842" x2="73.357" x1="54.102" y2="78.717" fill="#fff"/>
			<line stroke-linejoin="round" x1="54.102" y2="78.717" x2="73.357" stroke="#565655" stroke-linecap="round" stroke-miterlimit="10" y1="94.842" stroke-width="1.8408" fill="none"/>
		<line y1="65.148" x2="73.357" x1="54.102" y2="65.148" fill="#fff"/>
			<line stroke-linejoin="round" x1="54.102" y2="65.148" x2="73.357" stroke="#565655" stroke-linecap="round" stroke-miterlimit="10" y1="65.148" stroke-width="1.8408" fill="none"/>
		<path d="m41.562 87.432c0 3.619-2.936 6.555-6.557 6.555-3.617 0-6.553-2.936-6.553-6.555 0-3.621 2.936-6.555 6.553-6.555 3.622 0 6.557 2.934 6.557 6.555" fill="#fff"/>
			<path stroke-linejoin="round" d="m41.562 87.432c0 3.619-2.936 6.555-6.557 6.555-3.617 0-6.553-2.936-6.553-6.555 0-3.621 2.936-6.555 6.553-6.555 3.622 0 6.557 2.934 6.557 6.555z" stroke="#565655" stroke-linecap="round" stroke-miterlimit="10" stroke-width="1.8408" fill="none"/>
		<path d="m41.562 87.432v-24.502s7.165 5.156 7.165 11.834" fill="#fff"/>
			<path stroke-linejoin="round" d="m41.562 87.432v-24.502s7.165 5.156 7.165 11.834" stroke="#565655" stroke-linecap="round" stroke-miterlimit="10" stroke-width="1.8408" fill="none"/>
		<path d="m33.015 60.811c0 3.615-2.937 6.553-6.558 6.553-3.615 0-6.551-2.938-6.551-6.553 0-3.621 2.936-6.559 6.551-6.559 3.621 0 6.558 2.937 6.558 6.559" fill="#fff"/>
			<path stroke-linejoin="round" d="m33.015 60.811c0 3.615-2.937 6.553-6.558 6.553-3.615 0-6.551-2.938-6.551-6.553 0-3.621 2.936-6.559 6.551-6.559 3.621 0 6.558 2.937 6.558 6.559z" stroke="#565655" stroke-linecap="round" stroke-miterlimit="10" stroke-width="1.8408" fill="none"/>
		<path d="m33.015 60.811v-24.501s7.167 5.153 7.167 11.831" fill="#fff"/>
			<path stroke-linejoin="round" d="m33.015 60.811v-24.501s7.167 5.153 7.167 11.831" stroke="#565655" stroke-linecap="round" stroke-miterlimit="10" stroke-width="1.8408" fill="none"/>
	</g>
</switch>
</svg>
