<?xml version="1.0" encoding="UTF-8" standalone="no"?>
<!-- Generator: Adobe Illustrator 16.0.0, SVG Export Plug-In . SVG Version: 6.00 Build 0)  -->
<!DOCTYPE svg  PUBLIC '-//W3C//DTD SVG 1.1//EN'  'http://www.w3.org/Graphics/SVG/1.1/DTD/svg11.dtd'>
<svg id="icons" xmlns="http://www.w3.org/2000/svg" enable-background="new 0 0 180 180" xml:space="preserve" height="180px" viewBox="0 0 180 180" width="180px" version="1.1" y="0px" x="0px" xmlns:xlink="http://www.w3.org/1999/xlink">
<switch>
	<g>
			<path stroke-linejoin="round" d="m110.19 63.03c0 10.336-8.384 18.719-18.723 18.719-10.337 0-18.721-8.383-18.721-18.719 0-10.346 8.384-18.727 18.721-18.727 10.343 0.001 18.723 8.382 18.723 18.727z" stroke="#565655" stroke-linecap="round" stroke-miterlimit="10" stroke-width="1.8408" fill="none"/>
			<path stroke-linejoin="round" d="m106.79 84.851c-4.338 3.053-9.617 4.861-15.323 4.861s-10.982-1.809-15.32-4.861c-10.826 2.822-18.826 12.635-18.826 24.344v21.875h68.296v-21.875c0-11.715-8-21.527-18.83-24.349z" stroke="#565655" stroke-linecap="round" stroke-miterlimit="10" stroke-width="1.8408" fill="none"/>
		<polyline points="43.305 28.601 35.905 28.601 34.366 44.849 36.986 44.849 36.986 84.704 42.223 84.704 42.223 44.849 44.839 44.849" fill="#fff"/>
			<polygon stroke-linejoin="round" points="43.305 28.601 35.905 28.601 34.366 44.849 36.986 44.849 36.986 84.704 42.223 84.704 42.223 44.849 44.839 44.849" stroke="#565655" stroke-linecap="round" stroke-miterlimit="10" stroke-width="1.8408" fill="none"/>
		<rect y="79.888" x="32.232" height="51.184" width="14.742" fill="#fff"/>
			<rect stroke-linejoin="round" height="51.184" width="14.742" stroke="#565655" stroke-linecap="round" stroke-miterlimit="10" y="79.888" x="32.232" stroke-width="1.8408" fill="none"/>
		<path d="m156.46 44.554c0-5.871-3.336-10.963-8.211-13.498v14.662l-7.002 4.041-7.005-4.041v-14.662c-4.874 2.535-8.21 7.627-8.21 13.498 0 6.844 4.516 12.627 10.731 14.541v71.977h8.963v-71.975c6.22-1.914 10.74-7.698 10.74-14.541" fill="#fff"/>
			<path stroke-linejoin="round" d="m156.46 44.554c0-5.871-3.336-10.963-8.211-13.498v14.662l-7.002 4.041-7.005-4.041v-14.662c-4.874 2.535-8.21 7.627-8.21 13.498 0 6.844 4.516 12.627 10.731 14.541v71.977h8.963v-71.975c6.22-1.914 10.74-7.698 10.74-14.541z" stroke="#565655" stroke-linecap="round" stroke-miterlimit="10" stroke-width="1.8408" fill="none"/>
	</g>
</switch>
</svg>
