<?xml version="1.0" encoding="UTF-8" standalone="no"?>
<!-- Generator: Adobe Illustrator 16.0.0, SVG Export Plug-In . SVG Version: 6.00 Build 0)  -->
<!DOCTYPE svg  PUBLIC '-//W3C//DTD SVG 1.1//EN'  'http://www.w3.org/Graphics/SVG/1.1/DTD/svg11.dtd'>
<svg xmlns="http://www.w3.org/2000/svg" enable-background="new 0 0 189.389 137.553" xml:space="preserve" height="137.55px" width="189.39px" version="1.1" y="0px" x="0px" xmlns:xlink="http://www.w3.org/1999/xlink" viewBox="0 0 189.389 137.553">
<switch>
	<g>
		<g id="icons">
					<path d="m189.39 118.75l-1.022-0.098-188.37-18.05 12.062-78.844 163.16-21.756 14.17 118.75zm-187.49-19.635l185.6 17.787-13.73-115.04-160.26 21.37-11.61 75.885z" fill="#DFE1E1"/>
							<path d="m130.14 83.605c-0.448-0.002-0.9-0.021-1.398-0.053-0.17-0.018-0.322-0.025-0.465-0.045-0.473-0.041-0.893-0.086-1.291-0.15-0.138-0.016-0.268-0.041-0.398-0.066l-0.162-0.031c-0.264-0.045-0.531-0.104-0.789-0.158l-0.141-0.033c-0.172-0.039-0.34-0.074-0.513-0.121-0.337-0.084-0.677-0.182-1.034-0.295-0.232-0.074-0.477-0.158-0.778-0.262-0.138-0.053-0.272-0.1-0.403-0.15-0.523-0.199-1.039-0.416-1.529-0.643l-0.045-0.027c-0.028-0.014-0.059-0.025-0.082-0.047-1.141-0.541-2.201-1.168-3.16-1.857l-0.099-0.074 0.013-0.018c-4.707-3.445-7.779-8.711-8.447-14.484h-32.242c1.179 7.785 7.973 13.635 15.85 13.635 3.443 0 6.734-1.092 9.525-3.156v-0.031l0.053-0.035c0.664-0.502 1.225-0.977 1.7-1.455l0.095-0.088 3.516 3.367-0.079 0.092c-4.087 4.896-11.469 6.188-14.81 6.188-7.992 0-15.145-4.418-18.721-11.559-3.512 6.748-10.393 10.93-18.014 10.93-0.133 0-14.168-0.004-14.23-0.004l-0.13-0.006v-40.598l0.13-0.004c0.057 0 14.098-0.004 14.23-0.004 7.621 0 14.502 4.184 18.014 10.93 3.576-7.141 10.729-11.559 18.721-11.559 7.876 0 14.971 4.324 18.596 11.311 1.49-2.867 3.639-5.377 6.238-7.279l0.086-0.088c0.959-0.691 2.02-1.32 3.162-1.869 0.026-0.016 0.057-0.025 0.084-0.043l0.047-0.016c0.48-0.229 0.99-0.451 1.523-0.65 0.131-0.049 0.266-0.1 0.403-0.15 0.257-0.09 0.517-0.18 0.778-0.258 0.363-0.117 0.705-0.215 1.034-0.301 0.19-0.047 0.384-0.09 0.579-0.135l0.074-0.02c0.258-0.057 0.525-0.105 0.789-0.156l0.189-0.033c0.123-0.025 0.251-0.047 0.371-0.068 0.391-0.057 0.815-0.107 1.291-0.152 0.143-0.012 0.291-0.023 0.439-0.035 0.527-0.035 0.979-0.055 1.4-0.055l0.094-0.002 0.035 0.002c0.442 0 0.9 0.02 1.408 0.055 0.154 0.01 0.309 0.021 0.459 0.035 0.469 0.045 0.895 0.096 1.285 0.152 0.125 0.021 0.246 0.043 0.371 0.068l0.189 0.033c0.268 0.051 0.53 0.1 0.792 0.156l0.052 0.018c0.199 0.043 0.402 0.088 0.604 0.137 0.328 0.086 0.666 0.184 1.033 0.301 0.287 0.088 0.565 0.182 0.777 0.258 0.105 0.037 0.209 0.08 0.312 0.119l0.098 0.031c0.518 0.199 1.028 0.416 1.523 0.65l0.127 0.059c1.143 0.553 2.206 1.178 3.16 1.869l0.105 0.076-0.015 0.021c0.856 0.619 1.69 1.34 2.483 2.135l0.095 0.096-3.529 3.377-0.089-0.09c-0.669-0.662-1.396-1.27-2.16-1.803l-0.08-0.059c-0.09-0.057-0.172-0.111-0.254-0.166-0.33-0.219-0.67-0.424-1-0.607l-0.1-0.061c-0.047-0.027-0.082-0.049-0.127-0.072-0.861-0.463-1.785-0.852-2.732-1.154-0.061-0.02-0.262-0.074-0.262-0.074-0.387-0.119-0.783-0.221-1.182-0.309-0.117-0.025-0.231-0.049-0.348-0.072-0.36-0.068-0.764-0.129-1.209-0.182-0.045-0.006-0.086-0.012-0.127-0.018-0.059-0.008-0.121-0.016-0.18-0.02-0.537-0.051-1.04-0.078-1.535-0.078-0.493 0-0.994 0.027-1.539 0.078-0.055 0.004-0.119 0.014-0.172 0.02l-0.129 0.018c-0.444 0.053-0.846 0.113-1.209 0.182-0.115 0.023-0.234 0.047-0.344 0.072-0.405 0.088-0.801 0.189-1.189 0.309 0 0-0.211 0.059-0.26 0.074-0.949 0.303-1.867 0.691-2.734 1.158-0.039 0.021-0.08 0.043-0.125 0.07-0.033 0.018-0.063 0.037-0.1 0.059-0.351 0.197-0.686 0.402-1.002 0.607-0.111 0.072-0.221 0.148-0.33 0.225-4.322 3.004-6.904 7.934-6.904 13.184 0 5.244 2.582 10.172 6.904 13.176 0.121 0.086 0.227 0.154 0.33 0.227 0.31 0.205 0.646 0.408 1.002 0.607 0.036 0.025 0.066 0.039 0.104 0.061 0.044 0.025 0.081 0.045 0.12 0.074 0.87 0.463 1.787 0.85 2.734 1.152 0.058 0.018 0.115 0.029 0.169 0.049l0.091 0.025c0.389 0.117 0.784 0.219 1.189 0.307 0.109 0.025 0.23 0.047 0.344 0.072 0.367 0.072 0.766 0.133 1.209 0.182l0.125 0.018c0.057 0.008 0.121 0.016 0.176 0.021 0.55 0.055 1.055 0.08 1.539 0.08 0.486 0 0.986-0.025 1.535-0.08 0.059-0.006 0.121-0.014 0.18-0.021l0.127-0.018c0.443-0.049 0.843-0.109 1.209-0.182 0.116-0.025 0.23-0.047 0.348-0.072 0.398-0.088 0.795-0.189 1.182-0.307l0.032-0.006c0.077-0.025 0.152-0.045 0.229-0.068 0.947-0.303 1.871-0.689 2.732-1.152 0.037-0.021 0.076-0.049 0.119-0.07 0.033-0.021 0.07-0.039 0.107-0.064 0.338-0.189 0.67-0.393 1-0.607 0.076-0.049 0.156-0.104 0.229-0.154l0.104-0.072c0.764-0.535 1.498-1.139 2.16-1.803l0.089-0.088 3.529 3.375-0.095 0.092c-0.793 0.801-1.627 1.518-2.483 2.146l-0.091 0.094c-0.954 0.689-2.018 1.316-3.16 1.863-0.021 0.016-0.127 0.059-0.127 0.059-0.5 0.236-1.016 0.457-1.523 0.652l-0.049 0.014c-0.117 0.049-0.24 0.098-0.361 0.137-0.303 0.104-0.546 0.188-0.777 0.262-0.361 0.113-0.699 0.211-1.033 0.295-0.181 0.047-0.357 0.082-0.537 0.125l-0.118 0.029c-0.262 0.055-0.524 0.113-0.792 0.158l-0.162 0.031c-0.129 0.025-0.26 0.051-0.398 0.066-0.395 0.064-0.816 0.109-1.285 0.15-0.15 0.02-0.305 0.027-0.459 0.045-0.508 0.031-0.957 0.051-1.382 0.053h-0.122zm-73.847-5.369c8.59 0 15.566-6.986 15.566-15.562 0-8.586-6.977-15.566-15.566-15.566-0.031 0-6.18 0.004-9.521 0.006v31.113c3.341 0.003 9.49 0.009 9.521 0.009zm52.587-17.984c-1.18-7.785-7.969-13.633-15.855-13.633-7.877 0-14.671 5.848-15.85 13.633h31.705z" fill="#DFE1E1"/>
							<path d="m130.21 41.865c0.021 0 0.041 0.002 0.062 0.002 0.456 0 0.919 0.023 1.371 0.055 0.154 0.01 0.306 0.021 0.455 0.033 0.435 0.039 0.858 0.092 1.288 0.156 0.18 0.025 0.369 0.062 0.555 0.1 0.26 0.047 0.52 0.102 0.781 0.156 0.218 0.045 0.434 0.096 0.648 0.15 0.346 0.086 0.688 0.188 1.03 0.295 0.263 0.08 0.518 0.17 0.774 0.262 0.131 0.047 0.268 0.1 0.402 0.148 0.514 0.195 1.021 0.414 1.516 0.646 0.043 0.016 0.084 0.037 0.127 0.059 1.098 0.531 2.156 1.145 3.14 1.854l-0.016 0.021c0.924 0.662 1.78 1.404 2.573 2.203l-3.341 3.193c-0.669-0.666-1.399-1.273-2.177-1.814-0.113-0.082-0.221-0.154-0.334-0.229-0.33-0.217-0.666-0.422-1.006-0.613-0.08-0.045-0.152-0.088-0.232-0.131-0.871-0.473-1.795-0.861-2.756-1.166-0.084-0.025-0.171-0.049-0.254-0.076-0.396-0.115-0.799-0.223-1.199-0.309-0.115-0.027-0.232-0.047-0.346-0.07-0.402-0.08-0.807-0.139-1.221-0.188-0.104-0.012-0.203-0.025-0.312-0.037-0.508-0.049-1.023-0.078-1.547-0.078-0.521 0-1.039 0.029-1.545 0.078-0.109 0.012-0.209 0.025-0.312 0.037-0.412 0.049-0.814 0.107-1.22 0.188-0.12 0.023-0.233 0.043-0.347 0.07-0.4 0.086-0.805 0.193-1.194 0.309-0.087 0.027-0.175 0.051-0.259 0.076-0.961 0.305-1.884 0.693-2.758 1.166-0.078 0.043-0.152 0.086-0.229 0.131-0.344 0.191-0.684 0.396-1.008 0.613-0.119 0.074-0.223 0.146-0.334 0.229-4.205 2.92-6.959 7.779-6.959 13.289 0 5.5 2.754 10.363 6.959 13.289 0.111 0.072 0.215 0.146 0.334 0.225 0.324 0.217 0.664 0.42 1.008 0.609 0.076 0.047 0.15 0.092 0.229 0.135 0.874 0.467 1.797 0.859 2.758 1.162 0.084 0.027 0.172 0.053 0.259 0.078 0.39 0.115 0.794 0.217 1.194 0.309 0.113 0.023 0.227 0.045 0.347 0.07 0.405 0.074 0.808 0.139 1.22 0.188 0.104 0.012 0.203 0.027 0.312 0.037 0.506 0.049 1.023 0.08 1.545 0.08 0.523 0 1.039-0.031 1.547-0.08 0.109-0.01 0.209-0.025 0.312-0.037 0.414-0.049 0.818-0.113 1.221-0.188 0.113-0.025 0.23-0.047 0.346-0.07 0.4-0.092 0.803-0.193 1.199-0.309 0.083-0.025 0.17-0.051 0.254-0.078 0.961-0.303 1.885-0.695 2.756-1.162 0.08-0.043 0.152-0.088 0.232-0.135 0.34-0.189 0.676-0.393 1.006-0.609 0.113-0.078 0.221-0.152 0.334-0.225 0.777-0.547 1.508-1.154 2.177-1.822l3.341 3.193c-0.793 0.807-1.649 1.549-2.573 2.205l0.016 0.021c-0.983 0.709-2.042 1.32-3.14 1.852-0.043 0.021-0.084 0.041-0.127 0.062-0.494 0.236-1.002 0.447-1.516 0.643-0.135 0.049-0.271 0.102-0.402 0.152-0.257 0.086-0.512 0.174-0.774 0.256-0.343 0.111-0.685 0.205-1.03 0.293-0.215 0.057-0.431 0.107-0.648 0.154-0.262 0.057-0.521 0.109-0.781 0.156-0.186 0.035-0.375 0.074-0.555 0.104-0.43 0.064-0.854 0.113-1.288 0.146-0.149 0.021-0.301 0.029-0.455 0.043-0.452 0.025-0.915 0.045-1.371 0.051h-0.062-0.036-0.059c-0.461-0.006-0.918-0.025-1.373-0.051-0.149-0.014-0.305-0.021-0.455-0.043-0.434-0.033-0.859-0.082-1.281-0.146-0.188-0.029-0.373-0.068-0.559-0.104-0.262-0.047-0.523-0.1-0.783-0.156-0.217-0.047-0.438-0.098-0.653-0.154-0.343-0.088-0.683-0.182-1.028-0.293-0.258-0.082-0.512-0.17-0.77-0.256-0.137-0.051-0.271-0.104-0.408-0.152-0.508-0.195-1.016-0.406-1.508-0.643-0.047-0.021-0.088-0.041-0.131-0.062-1.104-0.531-2.161-1.143-3.139-1.852l0.01-0.021c-4.643-3.355-7.846-8.586-8.506-14.578h-32.495c1.117 7.854 7.848 13.895 16.002 13.895 3.625 0 6.959-1.205 9.652-3.227v-0.025c0.605-0.451 1.189-0.938 1.721-1.463l3.338 3.193c-3.772 4.521-10.713 6.139-14.711 6.139-8.23 0-15.344-4.775-18.715-11.715-3.33 6.578-10.144 11.09-18.02 11.09-0.058 0-14.17-0.004-14.23-0.004v-40.345c0.061 0 14.173-0.006 14.23-0.006 7.876 0 14.689 4.518 18.02 11.092 3.371-6.936 10.484-11.719 18.715-11.719 8.134 0 15.172 4.666 18.596 11.461 1.508-2.994 3.716-5.574 6.412-7.523l-0.01-0.021c0.978-0.709 2.035-1.322 3.139-1.854 0.043-0.021 0.084-0.043 0.131-0.059 0.492-0.232 1-0.451 1.508-0.646 0.137-0.049 0.271-0.102 0.408-0.148 0.258-0.092 0.512-0.182 0.77-0.262 0.346-0.107 0.686-0.209 1.028-0.295 0.216-0.055 0.437-0.105 0.653-0.15 0.26-0.055 0.521-0.109 0.783-0.156 0.186-0.037 0.371-0.074 0.559-0.1 0.422-0.064 0.848-0.117 1.281-0.156 0.15-0.012 0.306-0.023 0.455-0.033 0.455-0.031 0.912-0.055 1.373-0.055 0.023 0 0.041-0.002 0.059-0.002h0.013c0.02-0.001 0.03-0.001 0.03-0.001m-53.185 18.516h32.008c-1.113-7.854-7.84-13.895-16.006-13.895-8.151 0-14.881 6.041-15.999 13.895m-20.732 17.986c8.672 0 15.695-7.031 15.695-15.693 0-8.67-7.023-15.697-15.695-15.697-0.031 0-6.34 0.004-9.656 0.006v31.373c3.316 0.005 9.625 0.011 9.656 0.011m73.917-36.765h-0.036c-0.01 0-0.023 0.002-0.04 0.002h-0.019c-0.425 0.002-0.877 0.023-1.393 0.053l-0.018 0.004c-0.146 0.012-0.295 0.02-0.442 0.035-0.479 0.045-0.899 0.096-1.296 0.154-0.123 0.021-0.252 0.045-0.376 0.066-0.063 0.01-0.122 0.027-0.188 0.035-0.295 0.057-0.556 0.107-0.793 0.16l-0.076 0.02c-0.191 0.041-0.391 0.08-0.584 0.133-0.332 0.088-0.676 0.186-1.045 0.301-0.289 0.088-0.566 0.186-0.776 0.264-0.142 0.047-0.275 0.1-0.411 0.15-0.529 0.203-1.049 0.422-1.537 0.654l-0.033 0.018c-0.033 0.014-0.07 0.029-0.098 0.047-1.141 0.547-2.213 1.18-3.174 1.873l-0.199 0.143 0.009 0.02c-2.499 1.857-4.587 4.275-6.06 7.029-1.732-3.24-4.276-5.975-7.393-7.938-3.352-2.105-7.223-3.223-11.203-3.223-4.025 0-7.943 1.143-11.318 3.303-3.144 2.006-5.696 4.801-7.402 8.107-1.682-3.127-4.145-5.766-7.16-7.658-3.248-2.039-6.996-3.121-10.854-3.121-0.133 0-14.174 0.004-14.236 0.004l-0.258 0.008v40.858l0.264 0.004c0.057 0 14.098 0.002 14.23 0.002 3.857 0 7.605-1.08 10.854-3.119 3.016-1.895 5.479-4.533 7.16-7.658 1.706 3.305 4.259 6.098 7.402 8.105 3.375 2.162 7.293 3.299 11.318 3.299 3.363 0 10.789-1.299 14.912-6.23l0.159-0.186-0.179-0.168-3.34-3.201-0.188-0.178-0.178 0.186c-0.475 0.471-1.027 0.945-1.688 1.436l-0.103 0.082v0.027c-2.759 2.027-6.003 3.09-9.397 3.09-3.855 0-7.572-1.395-10.471-3.934-2.787-2.451-4.639-5.791-5.225-9.438h31.973c0.688 5.727 3.73 10.939 8.378 14.391l-0.009 0.014 0.199 0.143c0.961 0.693 2.033 1.33 3.178 1.881 0.023 0.012 0.057 0.027 0.088 0.039l0.039 0.023c0.498 0.232 1.01 0.453 1.537 0.652 0.136 0.051 0.27 0.098 0.411 0.15 0.298 0.111 0.544 0.191 0.776 0.268 0.359 0.107 0.703 0.207 1.045 0.291 0.17 0.049 0.346 0.084 0.518 0.121l0.143 0.035c0.258 0.055 0.525 0.113 0.793 0.158l0.159 0.031c0.13 0.021 0.265 0.049 0.399 0.068 0.402 0.066 0.83 0.117 1.302 0.156 0.147 0.014 0.296 0.027 0.446 0.037h0.014c0.506 0.039 0.963 0.055 1.387 0.055h0.018 0.047 0.036 0.045 0.017c0.427 0 0.882-0.016 1.392-0.055 0.154-0.01 0.311-0.023 0.463-0.037 0.466-0.039 0.894-0.09 1.295-0.156 0.137-0.02 0.266-0.047 0.397-0.064l0.167-0.035c0.25-0.045 0.508-0.096 0.787-0.158l0.128-0.025c0.179-0.039 0.36-0.082 0.528-0.131 0.346-0.084 0.686-0.184 1.049-0.297 0.232-0.068 0.479-0.15 0.781-0.262 0.124-0.043 0.244-0.088 0.367-0.137l0.043-0.014c0.514-0.197 1.031-0.414 1.532-0.652 0.021-0.012 0.046-0.023 0.062-0.027 0.023-0.012 0.051-0.025 0.074-0.039 1.143-0.547 2.219-1.184 3.174-1.877l0.213-0.148-0.014-0.018c0.822-0.613 1.628-1.314 2.396-2.082l0.187-0.188-0.193-0.182-3.34-3.201-0.184-0.178-0.176 0.186c-0.664 0.652-1.387 1.256-2.152 1.791l-0.098 0.068c-0.074 0.051-0.154 0.1-0.226 0.152-0.323 0.215-0.658 0.416-0.995 0.6-0.035 0.025-0.073 0.045-0.109 0.064-0.037 0.023-0.078 0.047-0.114 0.066-0.854 0.463-1.776 0.848-2.712 1.148-0.074 0.025-0.148 0.045-0.227 0.064l-0.023 0.01c-0.393 0.117-0.79 0.219-1.18 0.305-0.115 0.02-0.23 0.045-0.34 0.07-0.373 0.07-0.762 0.127-1.203 0.184-0.043 0.002-0.094 0.006-0.13 0.016-0.063 0.002-0.118 0.012-0.175 0.023-0.545 0.047-1.047 0.072-1.523 0.072-0.48 0-0.977-0.025-1.523-0.072-0.053-0.012-0.121-0.021-0.179-0.023-0.038-0.01-0.081-0.014-0.128-0.016-0.438-0.057-0.834-0.113-1.198-0.184-0.107-0.025-0.224-0.051-0.337-0.07-0.398-0.086-0.793-0.188-1.182-0.305l-0.09-0.029c-0.057-0.01-0.107-0.029-0.164-0.045-0.936-0.301-1.851-0.686-2.709-1.148-0.043-0.021-0.082-0.043-0.121-0.066-0.033-0.02-0.07-0.039-0.108-0.064-0.351-0.193-0.686-0.398-0.991-0.6-0.106-0.064-0.207-0.141-0.309-0.211l-0.015-0.01c-4.292-2.988-6.854-7.873-6.854-13.074 0-5.205 2.562-10.094 6.854-13.076 0.104-0.078 0.214-0.148 0.323-0.225 0.31-0.205 0.643-0.41 0.996-0.604 0.033-0.018 0.068-0.039 0.1-0.061 0.041-0.021 0.082-0.045 0.125-0.07 0.855-0.461 1.769-0.846 2.709-1.145 0.046-0.012 0.096-0.027 0.143-0.039l0.111-0.037c0.389-0.113 0.783-0.217 1.18-0.303 0.115-0.023 0.231-0.043 0.339-0.07 0.364-0.068 0.759-0.129 1.198-0.184 0.047-0.002 0.09-0.01 0.135-0.014 0.051-0.008 0.119-0.018 0.172-0.021 0.534-0.053 1.035-0.074 1.523-0.074 0.49 0 0.986 0.021 1.523 0.074 0.057 0.004 0.111 0.014 0.175 0.02 0.036 0.006 0.087 0.014 0.13 0.016 0.445 0.055 0.836 0.115 1.203 0.184 0.109 0.027 0.225 0.047 0.34 0.07 0.39 0.086 0.787 0.189 1.176 0.303l0.078 0.025c0.051 0.016 0.115 0.033 0.176 0.055 0.941 0.295 1.858 0.68 2.719 1.141 0.033 0.023 0.078 0.049 0.111 0.07 0.037 0.021 0.07 0.039 0.105 0.061 0.336 0.186 0.67 0.389 0.995 0.604 0.085 0.055 0.163 0.109 0.243 0.166l0.086 0.059c0.76 0.529 1.482 1.131 2.146 1.789l0.176 0.178 0.184-0.176 3.34-3.199 0.193-0.18-0.187-0.191c-0.768-0.764-1.573-1.467-2.396-2.074l0.014-0.021-0.213-0.152c-0.955-0.691-2.031-1.322-3.18-1.875-0.018-0.012-0.045-0.023-0.068-0.035l-0.062-0.027c-0.492-0.234-1.013-0.453-1.528-0.654l-0.096-0.033c-0.106-0.041-0.209-0.078-0.32-0.117-0.213-0.078-0.491-0.176-0.783-0.264-0.365-0.115-0.709-0.213-1.045-0.301-0.197-0.053-0.4-0.096-0.604-0.139l-0.053-0.014c-0.256-0.055-0.516-0.107-0.787-0.16-0.066-0.012-0.131-0.025-0.201-0.035-0.117-0.021-0.24-0.045-0.363-0.066-0.398-0.059-0.82-0.109-1.295-0.154-0.152-0.016-0.309-0.023-0.463-0.035-0.518-0.033-0.973-0.055-1.392-0.057h-0.021c-0.06-0.003-0.07-0.005-0.08-0.005zm-52.878 18.519c0.586-3.645 2.438-6.986 5.225-9.436 2.898-2.541 6.615-3.936 10.471-3.936 3.86 0 7.578 1.395 10.475 3.936 2.793 2.449 4.639 5.791 5.227 9.436h-31.398zm-30.434-12.875c3.37-0.006 9.363-0.01 9.395-0.01 8.509 0 15.436 6.926 15.436 15.438 0 8.508-6.927 15.432-15.436 15.432-0.031 0-6.024-0.006-9.395-0.012v-30.848z" fill="#DFE1E1"/>
							<path d="m153.69 46.143c0 0.949-0.34 1.756-1.008 2.426-0.664 0.672-1.479 1.008-2.426 1.008-0.943 0-1.754-0.336-2.424-1.008-0.671-0.67-1.004-1.477-1.004-2.426 0-0.941 0.333-1.75 1.004-2.422 0.67-0.668 1.48-1.006 2.424-1.006 0.947 0 1.762 0.338 2.426 1.006 0.67 0.672 1.01 1.48 1.01 2.422zm-0.76 0c0-0.732-0.26-1.369-0.784-1.896-0.518-0.529-1.15-0.791-1.889-0.791-0.736 0-1.365 0.262-1.889 0.791-0.521 0.527-0.781 1.164-0.781 1.896 0 0.74 0.26 1.377 0.781 1.9 0.523 0.531 1.152 0.795 1.889 0.795 0.738 0 1.371-0.264 1.889-0.795 0.52-0.523 0.78-1.16 0.78-1.9zm-0.81 1.632h-1.043l-0.988-1.254h-0.328v1.254h-0.805v-3.416h1.246c0.225 0 0.408 0.006 0.551 0.027 0.145 0.018 0.275 0.064 0.416 0.141 0.15 0.092 0.268 0.195 0.334 0.318 0.066 0.125 0.103 0.277 0.103 0.467 0 0.25-0.067 0.459-0.204 0.615-0.135 0.156-0.312 0.283-0.521 0.371l1.23 1.477zm-1.42-2.402c0-0.068-0.011-0.137-0.044-0.195-0.033-0.061-0.08-0.109-0.15-0.146-0.055-0.035-0.125-0.057-0.201-0.068-0.078-0.01-0.174-0.016-0.297-0.016h-0.254v0.965h0.195c0.123 0 0.236-0.008 0.334-0.031 0.105-0.018 0.186-0.051 0.248-0.1 0.055-0.045 0.098-0.094 0.125-0.164 0.03-0.067 0.04-0.147 0.04-0.245z" fill="#DFE1E1"/>
						<path d="m72.457 129.71c0 1.33-0.422 2.486-1.264 3.467-0.883 1.033-1.979 1.551-3.289 1.551-0.814 0-1.531-0.254-2.141-0.762-0.279-0.256-0.555-0.516-0.83-0.779-0.041 0.02-0.068 0.072-0.082 0.16-0.006 0.035-0.009 0.406-0.009 1.104l-0.01 2.787c0 0.209-0.075 0.314-0.229 0.314-1.011 0-1.611-0.014-1.795-0.041-0.152-0.018-0.227-0.105-0.227-0.254 0-0.846 0.004-2.109 0.02-3.795 0.012-1.686 0.02-2.951 0.02-3.793 0-1.547-0.1-3-0.297-4.355-0.016-0.08-0.021-0.129-0.021-0.158 0-0.072 0.032-0.117 0.101-0.139 0.248-0.014 0.615-0.049 1.094-0.109 0.647-0.117 1.01-0.176 1.086-0.176 0.115 0 0.187 0.197 0.218 0.594 0.021 0.264 0.038 0.521 0.05 0.777 0 0.055 0.021 0.107 0.06 0.16 0.046-0.025 0.101-0.072 0.157-0.139 0.922-0.939 1.855-1.412 2.797-1.412 1.303 0 2.404 0.512 3.297 1.529 0.862 0.98 1.294 2.14 1.294 3.47zm-2.309-0.04c0-0.789-0.248-1.484-0.742-2.084-0.52-0.637-1.17-0.959-1.947-0.959-0.762 0-1.389 0.33-1.876 0.99-0.447 0.592-0.672 1.283-0.672 2.074 0 0.803 0.229 1.5 0.692 2.094 0.506 0.639 1.15 0.957 1.936 0.957 0.75 0 1.384-0.332 1.898-0.996 0.472-0.61 0.711-1.31 0.711-2.07z" fill="#DFE1E1"/>
						<path d="m81.869 120.76l-0.01 0.127c-0.146 2.451-0.217 4.555-0.217 6.312 0 0.783 0.013 1.957 0.039 3.52 0.025 1.568 0.039 2.736 0.039 3.514 0 0.15-0.053 0.227-0.158 0.227h-1.887c-0.119 0-0.179-0.076-0.179-0.227 0-0.777 0.007-1.945 0.021-3.514 0.012-1.562 0.02-2.736 0.02-3.52 0-0.713-0.034-1.779-0.104-3.205-0.068-1.426-0.102-2.492-0.102-3.193 0-0.133 0.066-0.199 0.205-0.199 0.119 0 0.297 0.01 0.533 0.029 0.238 0.021 0.416 0.031 0.533 0.031 0.125 0 0.311-0.01 0.553-0.031 0.244-0.02 0.428-0.029 0.545-0.029 0.119-0.01 0.175 0.04 0.169 0.15z" fill="#DFE1E1"/>
						<path d="m98.805 125.52c0 0.025-0.008 0.086-0.028 0.176-0.257 1.508-0.388 2.809-0.388 3.9 0 0.068 0.084 1.545 0.249 4.439l0.009 0.135c0.006 0.193-0.081 0.287-0.26 0.287-0.182 0-0.454 0.021-0.82 0.064-0.365 0.043-0.639 0.064-0.814 0.064-0.125 0-0.223-0.229-0.287-0.691-0.066-0.459-0.129-0.691-0.188-0.691-0.04 0-0.216 0.127-0.534 0.385-0.387 0.314-0.75 0.555-1.086 0.721-0.518 0.264-1.039 0.396-1.561 0.396-1.277 0-2.354-0.51-3.229-1.531-0.83-0.975-1.245-2.109-1.245-3.408 0-1.461 0.419-2.672 1.255-3.625 0.875-0.992 2.028-1.492 3.455-1.492 1.008 0 1.889 0.35 2.639 1.047 0.111 0.133 0.285 0.326 0.523 0.572 0.02 0.021 0.039 0.031 0.059 0.031 0.038 0 0.096-0.207 0.17-0.623 0.07-0.414 0.162-0.621 0.275-0.621 0.178 0 0.512 0.049 0.998 0.148 0.538 0.1 0.808 0.2 0.808 0.29zm-2.52 4.13c0-0.812-0.238-1.506-0.721-2.086-0.506-0.625-1.154-0.939-1.944-0.939s-1.448 0.311-1.975 0.93c-0.509 0.592-0.763 1.293-0.763 2.096 0 0.797 0.254 1.486 0.763 2.072 0.526 0.613 1.185 0.92 1.975 0.92 0.771 0 1.416-0.312 1.936-0.939 0.485-0.58 0.729-1.27 0.729-2.05z" fill="#DFE1E1"/>
						<path d="m112.69 125.5c0 0.146-0.076 0.469-0.227 0.969-0.152 0.502-0.258 0.75-0.316 0.75-0.297-0.131-0.596-0.264-0.893-0.393-0.301-0.133-0.629-0.201-0.985-0.201-0.81 0-1.485 0.301-2.024 0.898-0.539 0.602-0.809 1.309-0.809 2.127 0 0.803 0.27 1.496 0.809 2.084 0.554 0.605 1.228 0.908 2.024 0.908 0.44 0 0.878-0.107 1.304-0.326 0.429-0.219 0.617-0.328 0.565-0.328 0.084 0 0.179 0.277 0.286 0.83 0.097 0.502 0.148 0.848 0.148 1.039 0 0.205-0.387 0.404-1.156 0.602-0.646 0.166-1.123 0.248-1.434 0.248-1.357 0-2.502-0.508-3.436-1.521-0.916-0.988-1.371-2.166-1.371-3.535 0-1.396 0.447-2.58 1.344-3.557 0.918-1 2.068-1.502 3.444-1.502 0.921 0 1.763 0.236 2.526 0.701 0.15 0.08 0.22 0.14 0.22 0.2z" fill="#DFE1E1"/>
						<path d="m127.67 129.16c0 0.486-0.211 0.814-0.633 0.979-0.283 0.104-2.32 0.297-6.113 0.582 0.085 0.578 0.406 1.072 0.959 1.48 0.526 0.387 1.092 0.582 1.701 0.582 1.037 0 1.992-0.336 2.861-1.008 0.104-0.084 0.211-0.17 0.316-0.256 0.053 0 0.086 0.008 0.105 0.02 0.016 0.014 0.137 0.242 0.369 0.688 0.229 0.443 0.344 0.684 0.344 0.717 0 0.037-0.053 0.113-0.158 0.229-0.967 1.025-2.208 1.539-3.723 1.539-1.527 0-2.745-0.457-3.653-1.367-0.908-0.914-1.362-2.129-1.362-3.65 0-1.357 0.434-2.539 1.303-3.547 0.915-1.049 2.038-1.568 3.367-1.568 1.238 0 2.272 0.453 3.102 1.361 0.8 0.89 1.2 1.96 1.2 3.23zm-2.35-0.6c0-0.549-0.215-1.031-0.646-1.455-0.434-0.422-0.919-0.631-1.459-0.631-0.605 0-1.143 0.246-1.613 0.73-0.472 0.486-0.705 1.037-0.705 1.639 0 0.139 0.117 0.207 0.355 0.207 0.973 0 2.137-0.098 3.495-0.293 0.37-0.06 0.56-0.13 0.56-0.2z" fill="#DFE1E1"/>
		</g>
	</g>
</switch>
</svg>
