<?xml version="1.0" encoding="UTF-8" standalone="no"?>
<!-- Generator: Adobe Illustrator 16.0.0, SVG Export Plug-In . SVG Version: 6.00 Build 0)  -->
<!DOCTYPE svg  PUBLIC '-//W3C//DTD SVG 1.1//EN'  'http://www.w3.org/Graphics/SVG/1.1/DTD/svg11.dtd'>
<svg xmlns="http://www.w3.org/2000/svg" enable-background="new 0 0 241.855 192.534" xml:space="preserve" height="192.53px" width="241.86px" version="1.1" y="0px" x="0px" xmlns:xlink="http://www.w3.org/1999/xlink" viewBox="0 0 241.855 192.534">
<switch>
	<g>
		<g id="icons">
				<rect y="11.764" x="6.835" height="180.77" width="228.77" fill="#89C240"/>
				<polygon stroke="#231F20" stroke-width="2.1135" stroke-miterlimit="10" points="240.65 150.46 1.213 127.52 16.329 28.723 222.84 1.189" fill="none"/>
					<g fill="#181716">
						<path d="m166.19 106.77c-0.572-0.005-1.149-0.027-1.785-0.07-0.216-0.021-0.413-0.029-0.595-0.055-0.603-0.051-1.139-0.113-1.648-0.191-0.176-0.021-0.342-0.055-0.508-0.086l-0.209-0.039c-0.335-0.06-0.676-0.133-1.006-0.203l-0.179-0.045c-0.22-0.047-0.437-0.094-0.656-0.154-0.432-0.104-0.864-0.23-1.32-0.375-0.297-0.094-0.608-0.203-0.994-0.331-0.176-0.069-0.349-0.13-0.515-0.194-0.67-0.254-1.325-0.531-1.951-0.822l-0.062-0.031c-0.033-0.021-0.071-0.035-0.104-0.064-1.455-0.69-2.81-1.49-4.036-2.37l-0.125-0.094 0.016-0.022c-6.01-4.402-9.934-11.125-10.788-18.5h-41.15c1.504 9.945 10.182 17.416 20.242 17.416 4.394 0 8.598-1.396 12.161-4.033v-0.039l0.069-0.047c0.848-0.639 1.562-1.246 2.17-1.856l0.121-0.11 4.489 4.299-0.1 0.117c-5.221 6.253-14.649 7.902-18.911 7.902-10.21 0-19.344-5.643-23.91-14.762-4.483 8.617-13.272 13.957-23.003 13.957-0.171 0-18.095-0.006-18.172-0.006l-0.169-0.006v-51.872l0.169-0.004c0.071 0 18.001-0.006 18.172-0.006 9.73 0 18.52 5.342 23.003 13.958 4.566-9.117 13.7-14.763 23.91-14.763 10.057 0 19.117 5.525 23.744 14.447 1.904-3.662 4.648-6.867 7.967-9.295l0.109-0.115c1.227-0.881 2.581-1.686 4.038-2.385 0.034-0.019 0.074-0.033 0.108-0.057l0.059-0.02c0.615-0.292 1.266-0.576 1.947-0.832 0.166-0.062 0.339-0.127 0.515-0.189 0.327-0.115 0.658-0.23 0.994-0.332 0.464-0.148 0.899-0.275 1.32-0.383 0.244-0.061 0.489-0.117 0.738-0.172l0.097-0.023c0.33-0.072 0.671-0.137 1.006-0.201l0.243-0.043c0.157-0.033 0.32-0.061 0.474-0.086 0.497-0.072 1.041-0.137 1.648-0.195 0.182-0.016 0.371-0.029 0.561-0.045 0.675-0.045 1.252-0.068 1.791-0.071l0.117-0.003 0.048 0.003c0.562 0.003 1.147 0.026 1.796 0.071 0.197 0.012 0.395 0.026 0.588 0.045 0.6 0.059 1.143 0.123 1.64 0.195 0.161 0.025 0.315 0.053 0.476 0.086l0.241 0.043c0.341 0.064 0.676 0.129 1.011 0.201l0.066 0.02c0.254 0.057 0.515 0.113 0.771 0.176 0.418 0.107 0.85 0.234 1.317 0.383 0.368 0.112 0.723 0.233 0.992 0.332 0.135 0.047 0.269 0.1 0.399 0.15l0.125 0.039c0.66 0.256 1.312 0.531 1.947 0.832l0.162 0.076c1.457 0.703 2.818 1.504 4.036 2.385l0.134 0.098-0.018 0.025c1.093 0.793 2.16 1.713 3.17 2.729l0.121 0.122-4.508 4.312-0.113-0.112c-0.854-0.847-1.784-1.624-2.76-2.304l-0.1-0.074c-0.115-0.07-0.221-0.143-0.324-0.215-0.422-0.277-0.856-0.539-1.277-0.775l-0.129-0.074c-0.061-0.037-0.104-0.064-0.161-0.092-1.1-0.596-2.28-1.092-3.489-1.478-0.078-0.024-0.334-0.093-0.334-0.093-0.493-0.151-0.999-0.281-1.511-0.395-0.146-0.033-0.294-0.062-0.441-0.09-0.462-0.088-0.976-0.168-1.544-0.234-0.06-0.006-0.11-0.014-0.162-0.021-0.076-0.012-0.154-0.02-0.231-0.026-0.685-0.063-1.329-0.1-1.958-0.1-0.633 0-1.271 0.036-1.966 0.1-0.071 0.007-0.153 0.019-0.222 0.026l-0.164 0.021c-0.566 0.066-1.08 0.146-1.544 0.234-0.146 0.027-0.298 0.057-0.438 0.09-0.518 0.113-1.023 0.243-1.52 0.395 0 0-0.268 0.074-0.332 0.093-1.211 0.386-2.385 0.882-3.49 1.479-0.053 0.029-0.104 0.057-0.162 0.092-0.04 0.022-0.08 0.047-0.123 0.072-0.45 0.251-0.878 0.516-1.282 0.775-0.142 0.096-0.281 0.191-0.421 0.289-5.52 3.838-8.817 10.131-8.817 16.834 0 6.699 3.298 12.992 8.817 16.83 0.154 0.106 0.288 0.195 0.421 0.287 0.396 0.264 0.825 0.521 1.282 0.778 0.043 0.03 0.083 0.047 0.131 0.075 0.055 0.032 0.102 0.057 0.154 0.094 1.109 0.592 2.281 1.086 3.49 1.473 0.073 0.023 0.147 0.039 0.217 0.062l0.115 0.032c0.496 0.151 1.002 0.278 1.52 0.392 0.141 0.034 0.294 0.061 0.438 0.092 0.469 0.092 0.979 0.17 1.544 0.232l0.158 0.021c0.074 0.012 0.156 0.021 0.228 0.029 0.7 0.069 1.346 0.104 1.966 0.104 0.618 0 1.259-0.034 1.958-0.104 0.077-0.008 0.155-0.018 0.231-0.029l0.162-0.021c0.562-0.062 1.076-0.141 1.544-0.232 0.147-0.031 0.295-0.058 0.441-0.092 0.512-0.113 1.018-0.24 1.511-0.392l0.041-0.011c0.098-0.028 0.195-0.054 0.293-0.084 1.209-0.387 2.39-0.881 3.489-1.473 0.048-0.028 0.096-0.062 0.151-0.088 0.043-0.028 0.092-0.051 0.139-0.081 0.43-0.243 0.855-0.502 1.277-0.778 0.098-0.062 0.199-0.132 0.293-0.197l0.131-0.09c0.976-0.685 1.915-1.457 2.76-2.304l0.113-0.11 4.508 4.309-0.121 0.117c-1.01 1.021-2.077 1.936-3.17 2.742l-0.116 0.118c-1.218 0.88-2.579 1.68-4.036 2.38-0.027 0.02-0.162 0.073-0.162 0.073-0.638 0.304-1.299 0.583-1.947 0.835l-0.062 0.018c-0.149 0.061-0.308 0.124-0.463 0.177-0.386 0.128-0.696 0.237-0.992 0.331-0.458 0.145-0.891 0.271-1.317 0.375-0.232 0.061-0.457 0.107-0.686 0.161l-0.152 0.038c-0.335 0.07-0.67 0.144-1.011 0.203l-0.207 0.039c-0.165 0.031-0.334 0.064-0.51 0.086-0.503 0.078-1.042 0.141-1.64 0.191-0.193 0.025-0.391 0.033-0.588 0.055-0.646 0.043-1.223 0.065-1.764 0.07h-0.21zm-94.301-6.86c10.969 0 19.877-8.921 19.877-19.876 0-10.962-8.908-19.877-19.877-19.877-0.04 0-7.894 0.006-12.16 0.008v39.732c4.266 0.004 12.12 0.013 12.16 0.013zm67.161-22.968c-1.507-9.941-10.176-17.409-20.246-17.409-10.061 0-18.738 7.468-20.242 17.409h40.492z"/>
						<path d="m166.28 53.461c0.029 0 0.053 0.002 0.08 0.002 0.582 0.002 1.174 0.029 1.752 0.072 0.195 0.01 0.39 0.027 0.58 0.041 0.555 0.051 1.098 0.117 1.644 0.199 0.23 0.035 0.474 0.082 0.709 0.127 0.332 0.061 0.665 0.131 0.999 0.201 0.278 0.057 0.552 0.121 0.828 0.192 0.441 0.11 0.878 0.239 1.314 0.374 0.336 0.104 0.662 0.217 0.99 0.337 0.167 0.06 0.344 0.124 0.513 0.188 0.655 0.25 1.304 0.527 1.936 0.826 0.056 0.021 0.105 0.047 0.163 0.075 1.404 0.677 2.752 1.462 4.01 2.366l-0.021 0.027c1.181 0.844 2.274 1.793 3.288 2.812l-4.269 4.079c-0.854-0.852-1.787-1.628-2.778-2.318-0.146-0.103-0.282-0.197-0.427-0.29-0.423-0.279-0.853-0.541-1.285-0.783-0.103-0.057-0.195-0.113-0.295-0.168-1.114-0.603-2.293-1.101-3.521-1.49-0.108-0.033-0.217-0.061-0.324-0.096-0.506-0.147-1.021-0.283-1.531-0.393-0.147-0.037-0.298-0.062-0.441-0.092-0.514-0.102-1.03-0.177-1.561-0.239-0.13-0.013-0.258-0.034-0.397-0.046-0.649-0.062-1.306-0.102-1.974-0.102-0.667 0-1.328 0.039-1.975 0.102-0.139 0.012-0.266 0.033-0.398 0.046-0.527 0.062-1.041 0.138-1.559 0.239-0.152 0.029-0.297 0.055-0.443 0.092-0.511 0.109-1.025 0.245-1.523 0.393-0.111 0.035-0.223 0.062-0.33 0.096-1.229 0.39-2.406 0.888-3.522 1.49-0.101 0.055-0.195 0.111-0.292 0.168-0.439 0.242-0.873 0.504-1.287 0.783-0.152 0.093-0.285 0.188-0.428 0.29-5.37 3.731-8.887 9.936-8.887 16.97 0 7.027 3.517 13.236 8.887 16.973 0.143 0.093 0.275 0.189 0.428 0.287 0.414 0.275 0.848 0.537 1.287 0.779 0.097 0.059 0.191 0.115 0.292 0.172 1.116 0.598 2.294 1.097 3.522 1.484 0.107 0.031 0.219 0.067 0.33 0.098 0.498 0.148 1.013 0.279 1.523 0.395 0.146 0.031 0.291 0.059 0.443 0.092 0.518 0.094 1.031 0.177 1.559 0.238 0.133 0.016 0.26 0.035 0.398 0.047 0.646 0.062 1.308 0.104 1.975 0.104 0.668 0 1.324-0.041 1.974-0.104 0.14-0.012 0.268-0.031 0.397-0.047 0.53-0.062 1.047-0.145 1.561-0.238 0.144-0.033 0.294-0.061 0.441-0.092 0.511-0.115 1.025-0.246 1.531-0.395 0.107-0.03 0.216-0.066 0.324-0.098 1.229-0.388 2.407-0.887 3.521-1.484 0.1-0.057 0.192-0.113 0.295-0.172 0.433-0.242 0.862-0.504 1.285-0.779 0.145-0.098 0.28-0.194 0.427-0.287 0.991-0.699 1.924-1.474 2.778-2.326l4.269 4.078c-1.014 1.029-2.107 1.975-3.288 2.815l0.021 0.026c-1.258 0.906-2.605 1.688-4.01 2.363-0.058 0.029-0.107 0.055-0.163 0.083-0.632 0.3-1.28 0.569-1.936 0.819-0.169 0.062-0.346 0.131-0.513 0.193-0.328 0.112-0.654 0.224-0.99 0.328-0.437 0.141-0.873 0.264-1.314 0.373-0.276 0.075-0.55 0.138-0.828 0.197-0.334 0.074-0.667 0.139-0.999 0.201-0.235 0.042-0.479 0.092-0.709 0.133-0.546 0.078-1.089 0.143-1.644 0.188-0.19 0.025-0.385 0.035-0.58 0.051-0.578 0.033-1.17 0.062-1.752 0.066h-0.08-0.043-0.074c-0.591-0.004-1.174-0.033-1.754-0.066-0.191-0.016-0.389-0.025-0.584-0.051-0.55-0.045-1.097-0.109-1.635-0.188-0.24-0.041-0.475-0.091-0.714-0.133-0.332-0.062-0.667-0.127-0.999-0.201-0.277-0.06-0.56-0.122-0.834-0.197-0.437-0.109-0.874-0.232-1.312-0.373-0.33-0.104-0.654-0.216-0.983-0.328-0.175-0.062-0.347-0.131-0.521-0.193-0.649-0.25-1.3-0.52-1.927-0.819-0.06-0.028-0.112-0.054-0.166-0.083-1.409-0.676-2.762-1.457-4.01-2.363l0.013-0.026c-5.93-4.286-10.021-10.965-10.862-18.618h-41.524c1.424 10.029 10.021 17.746 20.436 17.746 4.628 0 8.885-1.539 12.324-4.121v-0.031c0.773-0.576 1.518-1.197 2.197-1.869l4.261 4.078c-4.816 5.773-13.679 7.838-18.782 7.838-10.514 0-19.596-6.099-23.901-14.959-4.254 8.401-12.955 14.16-23.012 14.16-0.074 0-18.097-0.003-18.172-0.003v-51.527c0.075 0 18.098-0.006 18.172-0.006 10.057 0 18.758 5.768 23.012 14.166 4.306-8.86 13.388-14.969 23.901-14.969 10.385 0 19.372 5.959 23.744 14.638 1.926-3.823 4.746-7.12 8.189-9.608l-0.013-0.027c1.248-0.904 2.601-1.689 4.01-2.366 0.054-0.028 0.106-0.054 0.166-0.075 0.627-0.299 1.277-0.576 1.927-0.826 0.174-0.064 0.346-0.129 0.521-0.188 0.329-0.12 0.653-0.233 0.983-0.337 0.438-0.135 0.876-0.264 1.312-0.374 0.274-0.071 0.557-0.136 0.834-0.192 0.332-0.07 0.667-0.141 0.999-0.201 0.239-0.045 0.474-0.092 0.714-0.127 0.538-0.082 1.085-0.148 1.635-0.199 0.195-0.014 0.393-0.031 0.584-0.041 0.58-0.043 1.163-0.07 1.754-0.072 0.028 0 0.051-0.002 0.074-0.002h0.016c0.02-0.003 0.04-0.003 0.04-0.003m-67.914 23.649h40.875c-1.424-10.031-10.014-17.745-20.439-17.745-10.41 0-19.01 7.714-20.434 17.745m-26.477 22.97c11.073 0 20.042-8.977 20.042-20.041 0-11.07-8.969-20.045-20.042-20.045-0.04 0-8.098 0.004-12.331 0.01v40.063c4.233 0 12.291 0.01 12.331 0.01m94.391-46.956h-0.043c-0.014 0-0.029 0.006-0.052 0.006h-0.022c-0.544 0.002-1.121 0.028-1.779 0.068l-0.025 0.005c-0.185 0.013-0.374 0.024-0.562 0.043-0.613 0.056-1.148 0.122-1.655 0.198-0.157 0.027-0.321 0.057-0.48 0.083-0.079 0.015-0.155 0.036-0.241 0.044-0.375 0.072-0.708 0.139-1.012 0.207l-0.097 0.023c-0.245 0.053-0.501 0.104-0.747 0.17-0.422 0.113-0.861 0.236-1.332 0.385-0.371 0.111-0.725 0.236-0.994 0.336-0.18 0.062-0.35 0.129-0.522 0.193-0.679 0.258-1.341 0.537-1.964 0.834l-0.043 0.021c-0.041 0.018-0.088 0.037-0.125 0.062-1.457 0.696-2.826 1.506-4.052 2.391l-0.257 0.184 0.014 0.023c-3.191 2.37-5.859 5.46-7.74 8.977-2.212-4.137-5.46-7.631-9.44-10.135-4.28-2.689-9.223-4.119-14.304-4.119-5.144 0-10.145 1.46-14.456 4.219-4.015 2.563-7.274 6.131-9.454 10.354-2.147-3.993-5.293-7.364-9.145-9.78-4.146-2.604-8.934-3.984-13.858-3.984-0.171 0-18.101 0.005-18.18 0.005l-0.33 0.01v52.177l0.338 0.004c0.071 0 18.001 0.004 18.172 0.004 4.925 0 9.713-1.379 13.858-3.984 3.852-2.418 6.997-5.789 9.145-9.781 2.18 4.221 5.439 7.789 9.454 10.352 4.312 2.764 9.312 4.213 14.456 4.213 4.292 0 13.776-1.657 19.042-7.955l0.204-0.238-0.23-0.216-4.265-4.085-0.239-0.229-0.227 0.234c-0.607 0.604-1.312 1.209-2.154 1.837l-0.131 0.103v0.035c-3.523 2.589-7.669 3.948-12 3.948-4.926 0-9.673-1.783-13.373-5.026-3.561-3.127-5.925-7.395-6.673-12.051h40.827c0.881 7.312 4.766 13.973 10.703 18.379l-0.014 0.019 0.257 0.181c1.226 0.885 2.595 1.698 4.058 2.402 0.031 0.016 0.071 0.032 0.111 0.051l0.051 0.027c0.635 0.297 1.288 0.578 1.964 0.834 0.173 0.062 0.343 0.125 0.522 0.193 0.381 0.14 0.697 0.24 0.994 0.34 0.458 0.139 0.895 0.266 1.332 0.372 0.219 0.061 0.441 0.108 0.661 0.156l0.183 0.044c0.328 0.068 0.672 0.145 1.012 0.201l0.205 0.041c0.166 0.029 0.338 0.062 0.511 0.086 0.513 0.084 1.058 0.149 1.661 0.201 0.188 0.02 0.378 0.033 0.57 0.047h0.018c0.646 0.049 1.229 0.068 1.771 0.068h0.022 0.06 0.043 0.059 0.021c0.545 0 1.126-0.02 1.777-0.068 0.195-0.014 0.395-0.027 0.59-0.047 0.596-0.052 1.142-0.117 1.654-0.201 0.177-0.023 0.338-0.057 0.506-0.084l0.216-0.043c0.32-0.057 0.647-0.121 1.005-0.201l0.164-0.035c0.226-0.05 0.459-0.104 0.674-0.165 0.441-0.106 0.875-0.233 1.339-0.38 0.298-0.088 0.611-0.192 1-0.332 0.156-0.057 0.312-0.113 0.466-0.176l0.055-0.018c0.656-0.252 1.318-0.528 1.957-0.834 0.029-0.015 0.061-0.027 0.079-0.035 0.029-0.016 0.065-0.033 0.097-0.049 1.457-0.698 2.832-1.512 4.051-2.396l0.273-0.188-0.018-0.022c1.05-0.783 2.079-1.68 3.059-2.66l0.237-0.24-0.245-0.233-4.266-4.085-0.237-0.229-0.221 0.234c-0.849 0.836-1.771 1.607-2.749 2.289l-0.125 0.09c-0.096 0.064-0.196 0.127-0.288 0.193-0.413 0.273-0.841 0.531-1.27 0.767-0.048 0.03-0.096 0.058-0.142 0.081-0.047 0.031-0.102 0.061-0.147 0.084-1.089 0.592-2.266 1.084-3.462 1.467-0.095 0.033-0.191 0.057-0.289 0.083l-0.03 0.015c-0.501 0.145-1.009 0.277-1.506 0.387-0.148 0.023-0.295 0.057-0.434 0.088-0.478 0.09-0.974 0.164-1.538 0.236-0.055 0.004-0.117 0.008-0.165 0.02-0.08 0.004-0.149 0.018-0.224 0.031-0.695 0.061-1.336 0.093-1.943 0.093-0.615 0-1.248-0.032-1.947-0.093-0.068-0.014-0.156-0.027-0.229-0.031-0.049-0.012-0.104-0.016-0.161-0.02-0.56-0.072-1.065-0.146-1.532-0.236-0.138-0.031-0.285-0.064-0.43-0.088-0.509-0.109-1.015-0.242-1.508-0.387l-0.116-0.041c-0.071-0.012-0.138-0.035-0.21-0.057-1.197-0.383-2.363-0.875-3.459-1.467-0.056-0.027-0.106-0.053-0.156-0.084-0.041-0.023-0.09-0.051-0.137-0.081-0.448-0.248-0.875-0.509-1.266-0.767-0.137-0.084-0.265-0.182-0.394-0.271l-0.021-0.013c-5.479-3.814-8.752-10.053-8.752-16.697 0-6.646 3.272-12.887 8.752-16.697 0.133-0.1 0.273-0.189 0.414-0.285 0.395-0.264 0.82-0.525 1.272-0.771 0.04-0.023 0.086-0.051 0.127-0.076 0.051-0.031 0.104-0.061 0.159-0.09 1.092-0.59 2.257-1.08 3.459-1.461 0.059-0.018 0.123-0.039 0.183-0.053l0.144-0.047c0.493-0.146 0.999-0.276 1.505-0.387 0.147-0.029 0.295-0.055 0.433-0.088 0.467-0.09 0.969-0.166 1.532-0.234 0.058-0.006 0.112-0.014 0.17-0.018 0.063-0.014 0.151-0.025 0.22-0.029 0.682-0.065 1.322-0.096 1.947-0.096 0.623 0 1.259 0.03 1.943 0.096 0.074 0.004 0.144 0.016 0.224 0.025 0.048 0.008 0.11 0.016 0.165 0.021 0.569 0.068 1.067 0.145 1.538 0.234 0.139 0.033 0.285 0.059 0.434 0.088 0.497 0.11 1.005 0.24 1.501 0.387l0.1 0.031c0.066 0.021 0.148 0.047 0.225 0.069 1.203 0.38 2.373 0.87 3.473 1.46 0.043 0.027 0.098 0.059 0.141 0.09 0.049 0.025 0.09 0.048 0.138 0.076 0.427 0.234 0.853 0.494 1.27 0.771 0.11 0.07 0.207 0.139 0.312 0.211l0.108 0.074c0.972 0.678 1.894 1.443 2.742 2.283l0.221 0.229 0.237-0.224 4.266-4.085 0.245-0.233-0.237-0.24c-0.979-0.977-2.009-1.872-3.059-2.651l0.018-0.026-0.273-0.194c-1.219-0.883-2.594-1.689-4.062-2.395-0.021-0.016-0.057-0.029-0.086-0.045l-0.079-0.035c-0.627-0.301-1.295-0.579-1.952-0.834l-0.121-0.043c-0.136-0.055-0.267-0.101-0.407-0.15-0.272-0.1-0.628-0.225-1.002-0.336-0.465-0.148-0.906-0.271-1.334-0.385-0.254-0.066-0.512-0.123-0.771-0.176l-0.067-0.018c-0.327-0.071-0.658-0.137-1.005-0.207-0.086-0.013-0.168-0.029-0.259-0.044-0.148-0.026-0.304-0.056-0.463-0.083-0.507-0.076-1.049-0.143-1.654-0.198-0.195-0.019-0.395-0.03-0.59-0.043-0.659-0.045-1.242-0.071-1.777-0.073h-0.027c0 0.013-0.01 0.008-0.03 0.008zm-67.524 23.651c0.748-4.653 3.112-8.923 6.673-12.048 3.7-3.244 8.447-5.027 13.373-5.027s9.676 1.783 13.375 5.027c3.566 3.125 5.922 7.395 6.674 12.048h-40.094zm-38.863-16.442c4.304-0.006 11.956-0.01 11.996-0.01 10.866 0 19.71 8.844 19.71 19.711s-8.844 19.709-19.71 19.709c-0.04 0-7.692-0.008-11.996-0.014v-39.396z"/>
					</g>
						<path d="m196.27 58.926c0 1.211-0.434 2.241-1.288 3.098-0.847 0.857-1.888 1.287-3.098 1.287-1.204 0-2.24-0.43-3.095-1.287-0.857-0.856-1.283-1.887-1.283-3.098 0-1.205 0.426-2.239 1.283-3.094 0.854-0.854 1.891-1.285 3.095-1.285 1.21 0 2.251 0.432 3.098 1.285 0.86 0.855 1.29 1.889 1.29 3.094zm-0.97 0c0-0.938-0.334-1.748-1-2.424-0.663-0.676-1.473-1.013-2.415-1.013-0.938 0-1.743 0.337-2.412 1.013-0.666 0.676-0.999 1.486-0.999 2.424 0 0.944 0.333 1.758 0.999 2.425 0.669 0.681 1.474 1.017 2.412 1.017 0.942 0 1.752-0.336 2.415-1.017 0.67-0.667 1-1.48 1-2.425zm-1.04 2.083h-1.33l-1.263-1.602h-0.421v1.602h-1.025v-4.36h1.59c0.287 0 0.523 0.007 0.703 0.034 0.185 0.022 0.355 0.083 0.531 0.179 0.193 0.117 0.344 0.252 0.426 0.408 0.087 0.156 0.133 0.352 0.133 0.592 0 0.324-0.084 0.588-0.259 0.787-0.174 0.202-0.403 0.363-0.667 0.475l1.59 1.885zm-1.8-3.067c0-0.089-0.013-0.174-0.057-0.249-0.041-0.079-0.103-0.14-0.19-0.188-0.074-0.044-0.16-0.07-0.258-0.086-0.102-0.012-0.224-0.02-0.379-0.02h-0.326v1.231h0.25c0.157 0 0.303-0.011 0.43-0.039 0.133-0.022 0.235-0.067 0.313-0.128 0.071-0.059 0.127-0.121 0.16-0.21 0.05-0.083 0.07-0.184 0.07-0.311z" fill="#181716"/>
				<g fill="#181716">
					<path d="m92.531 165.64c0 1.699-0.539 3.174-1.615 4.428-1.127 1.32-2.526 1.98-4.2 1.98-1.04 0-1.955-0.324-2.736-0.974-0.354-0.327-0.705-0.657-1.059-0.994-0.049 0.026-0.085 0.091-0.104 0.202-0.008 0.049-0.01 0.52-0.01 1.412l-0.014 3.557c0 0.269-0.097 0.404-0.291 0.404-1.292 0-2.061-0.02-2.295-0.053-0.193-0.023-0.289-0.135-0.289-0.326 0-1.079 0.006-2.692 0.024-4.843 0.017-2.155 0.026-3.769 0.026-4.845 0-1.977-0.127-3.83-0.379-5.564-0.02-0.1-0.025-0.166-0.025-0.199 0-0.094 0.04-0.152 0.127-0.18 0.317-0.016 0.785-0.061 1.397-0.137 0.826-0.15 1.287-0.227 1.388-0.227 0.145 0 0.236 0.254 0.277 0.758 0.025 0.336 0.047 0.667 0.062 0.994 0 0.069 0.026 0.135 0.076 0.203 0.059-0.033 0.128-0.092 0.203-0.177 1.176-1.202 2.366-1.804 3.569-1.804 1.663 0 3.07 0.652 4.211 1.954 1.107 1.26 1.657 2.73 1.657 4.43zm-2.95-0.05c0-1.01-0.318-1.896-0.948-2.662-0.663-0.814-1.493-1.223-2.483-1.223-0.977 0-1.775 0.42-2.396 1.262-0.574 0.758-0.859 1.639-0.859 2.649 0 1.024 0.295 1.916 0.885 2.673 0.646 0.816 1.469 1.223 2.471 1.223 0.96 0 1.767-0.424 2.424-1.272 0.601-0.79 0.906-1.67 0.906-2.65z"/>
					<path d="m104.55 154.22l-0.013 0.162c-0.185 3.131-0.276 5.816-0.276 8.061 0 1 0.016 2.5 0.05 4.5 0.031 1.996 0.05 3.488 0.05 4.481 0 0.194-0.069 0.289-0.202 0.289h-2.41c-0.151 0-0.227-0.095-0.227-0.289 0-0.993 0.008-2.485 0.024-4.481 0.016-2 0.026-3.5 0.026-4.5 0-0.908-0.044-2.271-0.134-4.092-0.086-1.822-0.13-3.182-0.13-4.081 0-0.167 0.087-0.253 0.264-0.253 0.151 0 0.379 0.014 0.681 0.038 0.303 0.024 0.529 0.038 0.682 0.038 0.159 0 0.394-0.014 0.705-0.038 0.312-0.024 0.544-0.038 0.695-0.038 0.15-0.01 0.22 0.06 0.21 0.2z"/>
					<path d="m126.18 160.3c0 0.035-0.012 0.111-0.037 0.229-0.328 1.926-0.494 3.586-0.494 4.98 0 0.086 0.105 1.973 0.316 5.666l0.011 0.176c0.009 0.244-0.103 0.364-0.332 0.364-0.23 0-0.579 0.028-1.046 0.083s-0.816 0.084-1.043 0.084c-0.158 0-0.283-0.295-0.365-0.885-0.084-0.588-0.164-0.881-0.24-0.881-0.052 0-0.277 0.162-0.681 0.49-0.497 0.402-0.96 0.709-1.388 0.92-0.663 0.336-1.328 0.507-1.993 0.507-1.632 0-3.005-0.653-4.124-1.956-1.06-1.244-1.588-2.695-1.588-4.352 0-1.867 0.534-3.412 1.601-4.633 1.118-1.266 2.591-1.902 4.415-1.902 1.285 0 2.41 0.445 3.367 1.338 0.143 0.169 0.366 0.414 0.669 0.732 0.025 0.024 0.05 0.035 0.076 0.035 0.048 0 0.121-0.264 0.214-0.793 0.092-0.529 0.209-0.795 0.354-0.795 0.228 0 0.652 0.062 1.273 0.189 0.68 0.13 1.03 0.27 1.03 0.39zm-3.22 5.27c0-1.035-0.308-1.92-0.921-2.662-0.646-0.799-1.474-1.197-2.483-1.197s-1.851 0.395-2.522 1.186c-0.649 0.756-0.973 1.648-0.973 2.674 0 1.02 0.323 1.901 0.973 2.649 0.672 0.782 1.514 1.173 2.522 1.173 0.983 0 1.808-0.398 2.473-1.199 0.62-0.74 0.93-1.62 0.93-2.62z"/>
					<path d="m143.91 160.27c0 0.187-0.097 0.597-0.29 1.236s-0.327 0.958-0.403 0.958c-0.379-0.166-0.759-0.336-1.142-0.504-0.384-0.166-0.801-0.252-1.256-0.252-1.033 0-1.896 0.383-2.585 1.146-0.688 0.768-1.033 1.67-1.033 2.713 0 1.025 0.345 1.914 1.033 2.662 0.707 0.774 1.567 1.16 2.585 1.16 0.564 0 1.119-0.139 1.665-0.416 0.546-0.279 0.787-0.416 0.722-0.416 0.107 0 0.229 0.35 0.364 1.057 0.125 0.641 0.19 1.084 0.19 1.327 0 0.261-0.494 0.516-1.479 0.768-0.823 0.212-1.433 0.318-1.827 0.318-1.733 0-3.195-0.649-4.39-1.943-1.168-1.263-1.75-2.767-1.75-4.517 0-1.781 0.57-3.295 1.715-4.541 1.173-1.277 2.642-1.916 4.4-1.916 1.176 0 2.252 0.299 3.227 0.893 0.17 0.1 0.26 0.19 0.26 0.26z"/>
					<path d="m163.04 164.94c0 0.621-0.271 1.039-0.808 1.248-0.362 0.135-2.964 0.383-7.808 0.744 0.109 0.742 0.518 1.371 1.224 1.893 0.672 0.496 1.396 0.744 2.171 0.744 1.327 0 2.548-0.429 3.656-1.287 0.134-0.107 0.269-0.219 0.404-0.327 0.067 0 0.109 0.01 0.133 0.024 0.021 0.02 0.176 0.311 0.474 0.879 0.294 0.566 0.439 0.871 0.439 0.913 0 0.05-0.067 0.149-0.201 0.291-1.237 1.312-2.821 1.969-4.756 1.969-1.95 0-3.505-0.583-4.665-1.749-1.16-1.164-1.74-2.717-1.74-4.659 0-1.733 0.554-3.243 1.662-4.532 1.169-1.335 2.604-2.002 4.302-2.002 1.582 0 2.901 0.58 3.96 1.741 1.06 1.14 1.58 2.51 1.58 4.13zm-3-0.77c0-0.697-0.274-1.316-0.825-1.854-0.553-0.538-1.173-0.807-1.863-0.807-0.772 0-1.458 0.312-2.06 0.933-0.602 0.623-0.901 1.322-0.901 2.094 0 0.178 0.151 0.266 0.453 0.266 1.243 0 2.73-0.127 4.465-0.379 0.47-0.07 0.72-0.15 0.72-0.25z"/>
				</g>
		</g>
	</g>
</switch>
</svg>
